<?xml version="1.0" encoding="UTF-8"?>
<svg id="Calque_2" data-name="Calque 2" xmlns="http://www.w3.org/2000/svg" viewBox="0 0 100.5 131">
  <defs>
    <style>
      .cls-1 {
        fill: none;
      }

      .cls-2 {
        font-family: Arial-Black, 'Arial Black';
        font-size: 27px;
        font-weight: 800;
      }
    </style>
  </defs>
  <g id="Calque_1-2" data-name="Calque 1">
    <g>
      <text class="cls-2" transform="translate(0 122.72)"><tspan x="0" y="0">FENCE</tspan></text>
      <g>
        <polygon class="cls-1" points="52.63 12.7 52.63 8.46 45.68 10.59 52.63 12.7"/>
        <path class="cls-1" d="M47.63,49.5c-.33-.25-.7-.38-1.12-.38-.62,0-1.1.2-1.44.59-.33.39-.5,1.14-.5,2.23v2.62h3.93v-2.52c0-.27-.09-.8-.26-1.58-.08-.4-.28-.72-.61-.97Z"/>
        <path class="cls-1" d="M46.38,28.52c-.56,0-1,.18-1.32.55-.32.37-.47,1-.47,1.91v2.64h3.67v-2.6c0-.93-.16-1.58-.48-1.94-.32-.36-.79-.55-1.39-.55Z"/>
        <path class="cls-1" d="M53.83,27.75c-.57,0-1.03.21-1.38.63-.35.42-.52,1.15-.52,2.2v3.03h3.92v-3.04c0-1.03-.18-1.75-.55-2.18-.36-.42-.85-.63-1.47-.63Z"/>
        <path d="M60,54.57h-7.84v-.53c0-.54.15-1.03.45-1.46.23-.32.73-.68,1.49-1.08l5.91-3.19v-6.75l-5.6,2.89c-.28.14-.68.42-1.2.84-.52.42-.86.74-1.02.96-.24.33-.47.84-.71,1.55-.2-.89-.46-1.59-.76-2.1-.48-.8-1.11-1.43-1.89-1.89-.78-.46-1.7-.69-2.78-.69-1.23,0-2.27.3-3.13.9-.86.6-1.44,1.38-1.76,2.36s-.47,2.39-.47,4.23v9.95h19.33v-6ZM48.5,54.57h-3.93v-2.62c0-1.09.17-1.83.5-2.23.33-.4.81-.59,1.44-.59.42,0,.8.12,1.12.38.33.25.53.57.61.97.18.78.26,1.31.26,1.58v2.52Z"/>
        <path d="M60,29.32c0-.44-.09-1.33-.26-2.68-.13-1.01-.34-1.77-.63-2.27-.47-.81-1.1-1.45-1.9-1.91-.8-.46-1.7-.7-2.7-.7-1.23,0-2.25.33-3.06.98-.81.65-1.39,1.68-1.72,3.07-.32-.91-.75-1.61-1.29-2.08-.82-.71-1.8-1.07-2.94-1.07-1.36,0-2.5.5-3.43,1.5-.92,1-1.38,2.43-1.38,4.29v11.18h19.33v-10.31ZM48.25,33.61h-3.67v-2.64c0-.91.16-1.54.47-1.91.32-.36.76-.55,1.32-.55.61,0,1.07.18,1.39.55.32.37.48,1.01.48,1.94v2.6ZM55.85,33.61h-3.92v-3.03c0-1.05.17-1.78.52-2.2.35-.42.81-.63,1.38-.63.62,0,1.11.21,1.47.63.37.42.55,1.15.55,2.18v3.04Z"/>
        <path d="M60,14.94l-3.19-.94v-6.78l3.19-.97V0l-19.33,7.26v6.51l19.33,7.26v-6.1ZM52.63,12.7l-6.95-2.11,6.95-2.13v4.24Z"/>
        <g>
          <path d="M36.83,69.99H8.33c.38,1.71.83,3.48,1.38,5.33.13.43.27.86.43,1.29v-2.41h5.3v11.26c.07.08.12.15.19.23,1.88,2.19,3.9,4.05,6.04,5.58v-17.07h5.3v20.09c3.14,1.35,6.86,2.29,11.18,2.8.43.05.85.09,1.27.13v-23.91c-.16-.15-.33-.28-.48-.43-.84-.86-1.54-1.83-2.12-2.89Z"/>
          <path d="M44.74,76.27v21.44c2.16.15,4.23.24,6.23.27v-20.99c-.23,0-.45.03-.69.03-2.04,0-3.88-.26-5.54-.75Z"/>
          <polygon points="65.62 6.51 65.62 32.33 68.73 32.33 68.73 10.3 74.03 10.3 74.03 32.33 80.26 32.33 80.26 10.3 85.56 10.3 85.56 32.33 93.36 32.33 93.36 6.51 65.62 6.51"/>
          <polygon points="10.14 10.3 15.45 10.3 15.45 32.33 21.67 32.33 21.67 10.3 26.98 10.3 26.98 32.33 34.88 32.33 34.88 6.51 7.14 6.51 7.14 32.33 10.14 32.33 10.14 10.3"/>
          <path d="M80.26,36.14h-14.64v25.25c0,1.74-.18,3.33-.51,4.8h3.61v-25.84h5.3v25.84h6.23v-25.84h5.3v25.84h7.42c.25-1.98.38-4,.38-6.08v-23.97h-13.1Z"/>
          <path d="M10.14,40.34h5.3v25.84h6.23v-25.84h5.3v25.84h8.42c-.34-1.47-.52-3.06-.52-4.8v-25.25H7.14v23.97c0,1.9.17,3.93.49,6.08h2.52v-25.84Z"/>
          <path d="M61.54,72.94c-.39.39-.8.74-1.23,1.07,0-.21.02-.44.02-.64,0-1.63-.21-3.02-.65-4.18-.31-.83-.84-1.63-1.6-2.39-.76-.76-1.65-1.32-2.66-1.67-1.01-.36-2.09-.53-3.23-.53h-11.51v5.96h11.79c1.07,0,1.9.29,2.48.88.58.58.88,1.39.88,2.42s-.3,1.85-.89,2.43c-.11.11-.24.2-.37.29.59-.12,1.16-.27,1.71-.45v21.78c4.59-.22,8.74-.85,12.46-1.88v-21.83h5.3v19.92c2.13-1.01,4.21-2.34,6.23-4v-15.92h5.3v10.59c2.3-2.87,4.07-6.08,5.31-9.62.59-1.69,1.07-3.41,1.45-5.17h-28.62c-.59,1.09-1.3,2.09-2.17,2.95Z"/>
        </g>
      </g>
    </g>
  </g>
</svg>